PathFileType	3	(X/Y/Z)	D:\minhoCalibration\240510\subject2_KPNP\preferred\preferred13.trc
DataRate	CameraRate	NumFrames	NumMarkers	Units	OrigDataRate	OrigDataStartFrame	OrigNumFrames
200.0	200.0	30	10	mm	200.0	502	213	
Frame#	Time	Left_Ankle_Outer1			Left_Ankle_Inner1			Left_Knee_Outer1			Left_Knee_Inner1			Left_Wrist1			Right_Wrist1			Right_Knee_Inner1			Right_Knee_Outer1			Right_Ankle_Inner1			Right_Ankle_Outer1			
		X1	Y1	Z1	X2	Y2	Z2	X3	Y3	Z3	X4	Y4	Z4	X5	Y5	Z5	X6	Y6	Z6	X7	Y7	Z7	X8	Y8	Z8	X9	Y9	Z9	X10	Y10	Z10	
502	2.5	-673.3894	120.89085	-714.79065	-652.66949	131.26262	-663.94928	-549.86584	536.12415	-827.12335	-507.07959	519.43396	-739.62305	-669.69434	947.75763	-839.56506	-556.73395	1172.2301	-597.13409	-343.00134	988.96143	-241.91631	-320.84778	1064.2556	-270.76657	-363.40125	1020.576	168.85988	-334.06766	1116.8046	159.84085
503	2.505	-673.2439	121.66095	-715.08789	-652.42987	131.39153	-664.08154	-550.61688	536.89545	-823.35559	-507.14911	520.50348	-736.8327	-669.53839	947.36243	-836.9306	-557.46375	1172.448	-594.38715	-346.12686	993.03741	-239.94795	-327.76566	1072.3154	-268.73206	-360.71567	1015.1252	170.90562	-335.60562	1112.816	165.08745
504	2.51	-672.93378	122.32487	-714.93146	-652.33038	131.74121	-663.71027	-549.31061	538.69067	-820.82397	-507.58774	521.74536	-733.38141	-669.38971	946.50281	-834.14117	-558.20825	1173.1046	-591.67377	-347.92868	997.34662	-240.27997	-337.73856	1082.3038	-263.41684	-359.17728	1006.7408	172.8262	-338.79132	1105.381	170.34402
505	2.515	-672.56311	123.01419	-714.33856	-652.19513	132.16048	-663.04364	-547.65247	540.63623	-818.23499	-508.24844	522.93231	-729.52832	-669.34619	945.83972	-831.83099	-558.76355	1174.311	-589.19647	-347.74365	1001.2535	-241.04364	-349.24005	1089.9152	-257.19528	-357.6922	996.40723	173.64354	-342.58029	1096.1578	174.79988
506	2.52	-671.99347	123.41313	-713.08063	-652.05615	132.55693	-662.03406	-546.37384	542.20776	-814.94958	-509.11356	523.98157	-725.43579	-668.79602	945.05688	-829.29419	-559.28241	1175.9374	-587.24689	-345.57193	1005.48	-242.46126	-359.57108	1093.7146	-251.3105	-354.26306	986.15308	174.64595	-344.89145	1086.5704	178.10175
507	2.525	-672.03271	124.43824	-712.11487	-651.78668	132.94481	-660.75555	-543.81226	543.76373	-812.95367	-510.05441	525.01886	-721.13623	-667.86218	944.02362	-826.44769	-559.86475	1177.8715	-585.96686	-343.27603	1009.0401	-244.67371	-365.96066	1095.3535	-247.07437	-349.88034	975.83551	175.76578	-346.50363	1076.6277	181.34387
508	2.53	-671.76495	125.09072	-710.61395	-651.52692	133.3891	-659.28351	-541.91315	545.15442	-809.91681	-510.96689	525.95844	-716.89136	-666.41327	943.27667	-823.5932	-560.49286	1179.99	-585.53961	-342.51599	1011.79	-245.54367	-370.72858	1095.1361	-243.37975	-345.61105	966.86438	176.15128	-347.32809	1067.2114	184.82384
509	2.535	-671.42578	125.63158	-708.55682	-651.2262	133.87225	-657.62616	-539.56793	546.47028	-807.31329	-511.73633	526.82239	-712.86047	-664.56836	942.72748	-821.28595	-561.25165	1182.2502	-585.5343	-341.7937	1012.8239	-243.33099	-375.40802	1094.0889	-239.37254	-342.65494	960.24164	176.64291	-347.9101	1058.8275	187.37964
510	2.54	-671.37518	126.62311	-707.20239	-650.87726	134.37616	-655.89093	-536.62445	547.70264	-805.52252	-512.36566	527.58545	-709.13824	-662.56293	942.40759	-820.039	-562.14661	1184.4663	-585.59741	-341.05399	1011.2854	-239.21585	-378.99753	1092.4011	-235.32524	-342.52786	953.24634	177.82251	-350.28903	1052.5798	189.79091
511	2.545	-670.84631	127.13118	-705.17804	-650.55487	134.84627	-654.20892	-535.17499	547.98822	-802.70624	-512.70496	528.25531	-705.77216	-660.73169	942.76678	-819.66211	-563.24548	1186.3759	-585.36609	-341.83359	1008.2131	-234.26236	-381.02698	1089.8905	-231.58679	-344.00656	949.12848	179.82881	-353.41327	1047.882	191.61618
512	2.55	-670.76746	127.9615	-704.02576	-650.30878	135.21288	-652.67395	-533.15955	548.39368	-800.52655	-512.72198	528.75299	-702.91974	-658.91479	943.76807	-819.84741	-564.4118	1187.8551	-584.9151	-344.15903	1004.5115	-229.66856	-382.50549	1086.5594	-228.11539	-345.87204	944.5564	181.93491	-356.79617	1043.1682	193.78131
513	2.555	-670.30774	128.2484	-702.49799	-650.08783	135.46239	-651.39349	-531.2865	548.52325	-798.59814	-512.3913	529.18933	-700.55273	-656.84827	945.08966	-820.24652	-565.72192	1188.8024	-584.22717	-347.63632	1000.6359	-226.08119	-383.9404	1083.1398	-225.01295	-348.03171	938.95935	183.69424	-359.36249	1037.7388	196.00211
514	2.56	-670.29572	128.80157	-701.94446	-650.01093	135.57516	-650.34235	-529.22888	548.93176	-796.87421	-511.64557	529.46002	-698.80737	-654.51758	946.48865	-820.73767	-567.14661	1189.1891	-583.27704	-351.55994	996.92059	-223.57338	-385.9592	1079.6079	-221.24231	-350.04794	933.409	185.04434	-361.52893	1031.817	198.13695
515	2.565	-670.11859	129.00342	-701.45099	-650.04669	135.49188	-649.7691	-527.70227	548.83173	-795.16956	-510.58704	529.61853	-697.68066	-651.9809	947.99365	-821.30371	-568.52777	1189.0101	-582.08624	-355.76389	992.84442	-221.5386	-387.77423	1076.012	-217.99609	-352.42529	927.05408	186.24843	-363.55295	1025.3481	199.66689
516	2.57	-669.91321	129.01744	-701.50989	-650.2851	135.28656	-649.62164	-526.10724	548.7796	-793.84027	-509.31097	529.62848	-697.08411	-649.34186	949.55499	-822.03906	-570.00665	1188.3174	-580.75226	-359.82303	988.54309	-219.88986	-390.02255	1072.4703	-214.3932	-355.37735	919.40228	186.93808	-365.80331	1017.937	201.26959
517	2.575	-669.77246	129.00793	-702.04651	-650.6778	135.04869	-649.82849	-524.79163	548.7149	-792.54034	-507.89435	529.44781	-696.78687	-646.51251	951.15741	-822.94482	-571.52942	1187.356	-579.53241	-364.06351	984.33624	-218.04137	-392.41388	1069.0153	-211.42381	-359.12311	910.99738	186.99626	-368.1171	1009.4805	202.95299
518	2.58	-669.71136	128.85263	-703.04309	-651.28119	135.29062	-649.84711	-523.95978	548.34045	-791.47571	-506.5679	529.05634	-696.68829	-643.53888	952.83502	-824.00055	-573.16406	1186.4258	-578.23419	-368.67023	980.07446	-216.26454	-394.50562	1065.9198	-209.20303	-363.49811	902.21027	186.61044	-370.78305	1000.1439	204.09686
519	2.585	-669.55908	128.66437	-704.40442	-651.96222	134.45052	-651.38812	-522.90485	548.01465	-790.91187	-505.43726	528.44238	-696.67932	-640.65338	954.44037	-825.2627	-574.86273	1185.6451	-576.81281	-373.44626	975.89539	-214.61404	-396.34793	1063.0618	-207.88704	-368.24799	892.5069	185.73149	-374.02203	990.30847	204.9221
520	2.59	-669.5686	128.45583	-706.02179	-653.03888	134.54279	-651.96082	-522.39478	547.16534	-790.22498	-504.59872	527.60046	-696.64038	-637.71936	955.8866	-826.7135	-576.64404	1185.0818	-575.14667	-377.53662	971.81317	-213.58698	-397.93582	1060.1147	-207.30084	-373.83023	882.63837	184.65695	-377.47046	979.87842	205.50351
521	2.595	-669.57452	128.14674	-707.82526	-653.58496	133.69748	-654.09985	-521.89307	546.14886	-789.91364	-504.04547	526.61511	-696.50195	-634.89923	957.12122	-828.2514	-578.52368	1184.7417	-573.52759	-380.46414	967.7854	-213.3772	-399.33646	1056.9524	-207.13763	-379.1882	872.47479	182.6786	-381.88254	969.14685	206.2153
522	2.6	-669.5755	127.79653	-709.70782	-654.72778	133.47569	-654.93958	-521.39655	545.06708	-789.50299	-503.79581	525.51343	-696.25275	-632.11694	958.10236	-829.74902	-580.55298	1184.4856	-571.95013	-385.18039	962.72772	-211.61211	-400.21637	1053.5021	-207.19737	-385.17627	862.12457	180.89877	-387.28058	958.3587	206.22076
523	2.605	-669.62231	127.47446	-711.47913	-655.01831	133.12225	-656.67047	-521.07166	543.65179	-789.06366	-503.87317	524.34979	-695.80493	-629.49921	958.78754	-831.19513	-582.69727	1184.397	-570.5127	-384.24359	958.99048	-213.75969	-400.46933	1049.5428	-207.28665	-391.71027	851.75269	178.88475	-394.07745	947.31433	205.83218
524	2.61	-669.66486	126.94806	-713.10077	-655.8432	132.31447	-658.13672	-520.43152	542.27118	-788.65308	-504.14371	523.29089	-695.30194	-626.84576	959.22412	-832.46832	-584.95032	1184.4644	-569.35822	-385.29477	954.20844	-214.46222	-400.15683	1045.2278	-207.28041	-398.55817	840.41785	176.40749	-401.78726	935.86108	205.18442
525	2.615	-669.79254	126.34157	-714.45172	-656.14807	131.51132	-659.56238	-519.64606	541.01288	-788.12421	-504.82941	522.20715	-694.44678	-624.23053	959.48889	-833.44843	-587.21942	1184.5803	-568.52429	-385.94534	949.2464	-214.92963	-399.43411	1040.6451	-207.39586	-406.62485	829.75037	174.40054	-410.14978	924.2121	204.12732
526	2.62	-670.08063	125.65416	-715.57123	-657.22534	130.9709	-660.20367	-518.4527	539.97131	-787.80267	-505.68515	521.1142	-693.5141	-621.76605	959.46155	-834.03473	-589.51587	1184.5323	-567.90216	-386.73221	944.2475	-215.47549	-398.87369	1035.9094	-207.63524	-413.79037	818.14087	170.90178	-419.18646	912.47113	202.49821
527	2.625	-670.47052	124.89613	-716.38361	-658.10864	130.61215	-660.07446	-517.3009	538.9433	-787.18134	-506.77896	520.15674	-692.40948	-619.19269	959.19159	-834.37036	-591.72186	1184.2837	-567.36633	-387.03748	939.28894	-216.18442	-398.86374	1031.1121	-207.95782	-422.00903	806.28674	167.27515	-428.51654	900.55298	200.39659
528	2.63	-670.92987	123.89001	-716.91333	-658.5481	128.88557	-661.69849	-515.98871	538.15729	-786.59387	-507.97684	519.29999	-691.32965	-616.69299	958.77441	-834.50311	-593.7207	1183.6982	-566.92346	-386.88739	934.51227	-216.82841	-399.55652	1026.2589	-208.36209	-430.47211	794.75366	162.70695	-438.03375	888.35504	197.86264
529	2.635	-671.42554	122.85658	-717.18341	-659.58386	127.4978	-662.14209	-514.75659	537.19647	-786.1571	-509.26883	518.54083	-690.27411	-614.23505	958.1756	-834.55835	-595.65674	1182.6921	-566.63043	-386.36493	929.98334	-217.78333	-400.59122	1021.3983	-208.81828	-438.94586	782.87701	158.52718	-447.89435	875.93408	195.10278
530	2.64	-672.04407	121.61095	-717.25995	-660.41278	127.34715	-660.77551	-513.26721	536.82324	-785.70117	-510.62894	517.76257	-689.26605	-611.77533	957.33673	-834.41229	-597.61163	1181.4362	-566.06799	-385.6835	925.7312	-218.75697	-401.62335	1016.5189	-209.42706	-448.63144	770.62836	152.98357	-457.6817	863.15601	191.69237
531	2.645	-672.7511	120.24051	-717.04474	-660.75458	124.64214	-662.89301	-512.87976	535.57971	-785.22241	-511.86734	517.06091	-688.48065	-609.46149	956.61523	-834.32678	-599.15131	1179.7614	-566.08459	-384.88333	921.47272	-219.83357	-402.6857	1011.5699	-209.98053	-457.96652	758.31647	147.17058	-467.68958	849.89581	187.72348
